<?xml version="1.0" encoding="utf-8"?><svg xmlns="http://www.w3.org/2000/svg" xmlns:xlink="http://www.w3.org/1999/xlink"><symbol viewBox="0 0 35.08 43.35" id="arrow" xmlns="http://www.w3.org/2000/svg"><path d="M18 .333A2.167 2.167 0 0015.834 2.5v33.778L4.372 24.795a2.175 2.175 0 10-3.077 3.077l15.167 15.166a2.166 2.166 0 003.077 0l15.166-15.166a2.176 2.176 0 00-3.076-3.077L20.167 36.278V2.5A2.167 2.167 0 0018 .333z"/></symbol><symbol viewBox="0 0 27 27" id="facebook" xmlns="http://www.w3.org/2000/svg"><path d="M23.045 0H3.955A3.96 3.96 0 000 3.955v19.09A3.96 3.96 0 003.955 27h7.963v-9.545H8.754V12.71h3.164V9.492a4.751 4.751 0 014.746-4.746h4.799v4.746h-4.799v3.217h4.799l-.791 4.746h-4.008V27h6.38A3.96 3.96 0 0027 23.045V3.955A3.96 3.96 0 0023.045 0z"/></symbol><symbol viewBox="0 0 24.6 27.79" id="file" xmlns="http://www.w3.org/2000/svg"><path d="M6.645 27c-.083 0-.17-.002-.255-.005-1.566-.062-3.086-.72-4.17-1.804a5.844 5.844 0 010-8.256l11.322-11.32a3.71 3.71 0 015.24 0 3.713 3.713 0 010 5.242l-7.799 7.798-1.912-1.912 7.799-7.799a1.003 1.003 0 00-1.416-1.417L4.132 18.847a3.136 3.136 0 000 4.431c.61.61 1.472.979 2.366 1.014.89.036 1.69-.257 2.257-.821L20.1 12.125a5.869 5.869 0 001.681-3.959c.04-1.504-.49-2.884-1.49-3.885-2.103-2.1-5.933-2.1-8.034 0l-7.814 7.814-1.913-1.913 7.815-7.814c3.158-3.157 8.699-3.157 11.858 0 1.532 1.532 2.342 3.616 2.28 5.872-.058 2.17-.958 4.284-2.47 5.797L10.668 25.383C9.618 26.43 8.198 27 6.645 27z"/></symbol><symbol viewBox="0 0 27 27" id="inst" xmlns="http://www.w3.org/2000/svg"><path d="M23.045 0H3.955A3.96 3.96 0 000 3.955v19.09A3.96 3.96 0 003.955 27h19.09A3.96 3.96 0 0027 23.045V3.955A3.96 3.96 0 0023.045 0zm-9.492 20.566a7.127 7.127 0 01-7.12-7.119 7.127 7.127 0 017.12-7.119 7.127 7.127 0 017.119 7.12 7.127 7.127 0 01-7.12 7.118zm7.91-12.656a2.376 2.376 0 01-2.373-2.373 2.376 2.376 0 012.373-2.373 2.376 2.376 0 012.373 2.373 2.376 2.376 0 01-2.373 2.373z"/></symbol><symbol viewBox="0 0 100 100" id="telegram" xmlns="http://www.w3.org/2000/svg"><path d="M95 9.9c-1.3-1.1-3.4-1.2-7-.1-2.5.8-24.7 9.2-44.3 17.3-17.6 7.3-31.9 13.7-33.6 14.5-1.9.6-6 2.4-6.2 5.2-.1 1.8 1.4 3.4 4.3 4.7 3.1 1.6 16.8 6.2 19.7 7.1 1 3.4 6.9 23.3 7.2 24.5.4 1.8 1.6 2.8 2.2 3.2.1.1.3.3.5.4.3.2.7.3 1.2.3.7 0 1.5-.3 2.2-.8 3.7-3 10.1-9.7 11.9-11.6 7.9 6.2 16.5 13.1 17.3 13.9l.1.1c1.9 1.6 3.9 2.5 5.7 2.5.6 0 1.2-.1 1.8-.3 2.1-.7 3.6-2.7 4.1-5.4 0-.1.1-.5.3-1.2 3.4-14.8 6.1-27.8 8.3-38.7 2.1-10.7 3.8-21.2 4.8-26.8.2-1.4.4-2.5.5-3.2.3-2 .5-4.3-1-5.6zM30 58.3l47.7-31.6c.1-.1.3-.2.4-.3.1 0 .1-.1.2-.1s.1 0 .2-.1c-.1.1-.2.4-.4.6L66 38.1c-8.4 7.7-19.4 17.8-26.7 24.4v.1l-.1.1s0 .1-.1.1c0 .1 0 .1-.1.2v.2c-.5 5.6-1.4 15.2-1.8 19.5v-.1c-.4-1.2-6-20.3-7.2-24.3z"/></symbol><symbol viewBox="0 0 27 27" id="whatsapp" xmlns="http://www.w3.org/2000/svg"><path d="M13.5 0C6.085 0 0 6.085 0 13.5c0 2.447.66 4.83 1.911 6.914L0 27l6.586-1.911A13.41 13.41 0 0013.5 27C20.915 27 27 20.915 27 13.5S20.915 0 13.5 0zm8.44 19.204l-.628.628c-.888.889-2.932.819-4.245.565-4.367-.843-9.457-5.778-10.44-10.051-.485-2.117-.217-3.957.485-4.66l.628-.627a.89.89 0 011.256 0l2.513 2.513a.88.88 0 01.26.627.88.88 0 01-.26.628l-.628.629a1.78 1.78 0 000 2.512l4.15 4.095a1.776 1.776 0 002.512 0l.629-.628c.324-.326.93-.327 1.256 0l2.512 2.512a.888.888 0 010 1.257z"/></symbol></svg>