<svg version="1.1" id="Слой_1" xmlns="http://www.w3.org/2000/svg" x="0" y="0" viewBox="0 0 500 500" xml:space="preserve"><style>.st2{fill:#fff}</style><circle cx="250" cy="250.206" r="248.791"/><path class="st2" d="M267.92 471.788l-16.286-38.867-75.788 26.344 1.409-42.397-80.438-7.077 19.014-37.838-71.379-38.813 33.512-27.176-49.462-59.005 41.844-16.626-17.034-84.135 40.745 11.627 14.558-80.092 36.52 23.84 45.958-67.099 23.647 36.375 68.45-42.635 7.622 42.894 79.867-10.259-10.456 41.433 77.115 23.586-26.379 33.113 60.535 51.909-37.271 20.51 33.826 72.89-42.011 2.765 1.611 80.148-39.861-14.387-30.961 73.227-30.723-28.71-58.184 54.455zm-16.087-48.725c3.685 0 7.171 2.186 8.669 5.758l10.996 26.244 48.192-45.102c3.594-3.361 9.224-3.364 12.822-.005l20.768 19.406 25.656-60.679c1.939-4.595 7.139-6.864 11.828-5.175l26.84 9.686-1.333-66.305a9.37 9.37 0 018.768-9.555l28.16-1.854-27.98-60.292c-2.069-4.454-.318-9.801 3.987-12.173l25.243-13.891-50.117-42.972a9.351 9.351 0 01-1.233-12.972l17.666-22.177-63.737-19.494a9.38 9.38 0 01-6.354-11.274l7.036-27.881-66.006 8.479c-4.969.643-9.559-2.731-10.438-7.667l-5.159-29.04L219.59 79.33c-4.306 2.685-10.06 1.407-12.829-2.85l-15.877-24.422-37.9 55.335c-2.857 4.173-8.631 5.322-12.871 2.557l-24.518-16.005-12.003 66.034a9.392 9.392 0 01-4.274 6.291 9.402 9.402 0 01-7.535 1.057l-25.713-7.336 13.912 68.714a9.381 9.381 0 01-5.735 10.586L44.67 251.043l41.026 48.944a9.308 9.308 0 012.15 6.925 9.32 9.32 0 01-3.429 6.394l-22.478 18.227 58.881 32.018a9.351 9.351 0 013.903 12.461l-12.72 25.314 66.467 5.849a9.386 9.386 0 018.558 9.661l-.949 28.54 62.687-21.791a9.27 9.27 0 013.067-.522z"/><path class="st2" d="M183.564 258.508c-14.763.002-29.404-3.323-42.365-10.095-17.903-9.351-47.819-33.551-47.031-90.545a4.883 4.883 0 014.88-4.815h.068a4.883 4.883 0 014.815 4.948c-.531 38.369 14.31 67.405 41.789 81.76 27.291 14.256 62.976 11.404 88.796-7.096 14.612-10.473 38.056-34.927 30.885-81.059a4.884 4.884 0 014.074-5.574c2.662-.396 5.159 1.409 5.574 4.074 5.824 37.467-6.877 70.451-34.846 90.494-16.519 11.836-36.688 17.908-56.639 17.908z"/><path class="st2" d="M272.427 147.685a3.86 3.86 0 10-4.407 6.341l4.407-6.341zm-4.406 6.341c36.056 25.056 41.369 70.918 23.84 106.328-8.731 17.637-23.056 32.453-41.814 40.585-18.715 8.113-42.127 9.7-69.309.413l-2.497 7.306c28.804 9.843 54.218 8.323 74.878-.634 20.617-8.938 36.216-25.159 45.664-44.244 18.829-38.04 13.524-88.383-26.355-116.096l-4.407 6.342z"/><path class="st2" d="M182.326 312.026l-1.815-9.591c9.383-1.776 16.885-8.646 20.066-18.378 3.396-10.387.915-21.407-6.634-29.477l7.128-6.671c10.02 10.711 13.303 25.357 8.785 39.18-4.239 12.972-14.788 22.527-27.53 24.937z"/><circle class="st2" cx="228.395" cy="260.897" r="11.583"/><circle class="st2" cx="176.914" cy="305.944" r="9.009"/></svg>