<svg width="56" height="53" fill="none" xmlns="http://www.w3.org/2000/svg"><path d="M23.85 5.677l7.933-4.66.813 4.317c.054.283.333.476.635.44l9.26-1.122-1.114 4.16a.535.535 0 00.386.646l8.941 2.579-2.803 3.318a.517.517 0 00.075.744L55 21.78l-3.978 2.065a.523.523 0 00-.242.698l3.923 7.972-4.467.277c-.304.019-.539.26-.532.548l.186 8.767-4.244-1.445a.583.583 0 00-.72.297l-3.593 8.016-3.277-2.888a.596.596 0 00-.78 0l-6.752 5.96-1.736-3.907a.582.582 0 00-.713-.3l-8.79 2.88.15-4.257a.55.55 0 00-.52-.554l-9.325-.773 2.02-3.791a.523.523 0 00-.238-.714l-8.268-4.24 3.564-2.727a.517.517 0 00.078-.763L1 26.436l4.541-1.701a.533.533 0 00.349-.607l-1.964-9.146L8.16 16.12c.324.087.657-.108.718-.421l1.686-8.75 3.885 2.39c.26.16.607.095.782-.146l5.324-7.33 2.515 3.65c.17.245.516.318.78.163z" stroke="#fff"/><path d="M8.911 15.56c-.244 16.678 24.124 13.988 21.679-.845" stroke="#fff" stroke-linecap="round"/><path d="M30.868 14.336a.508.508 0 00-.68.115.445.445 0 00.122.642l.558-.757zm-.558.757c4.567 2.993 5.24 8.47 3.02 12.7-1.106 2.106-2.92 3.875-5.296 4.847-2.37.969-5.335 1.158-8.778.05l-.316.872c3.648 1.175 6.866.994 9.483-.076 2.611-1.068 4.587-3.005 5.783-5.284 2.385-4.544 1.713-10.556-3.338-13.866l-.558.757z" fill="#fff"/><path d="M19.343 33.395c3.015-.538 4.4-4.307 2.037-6.69" stroke="#fff"/><path d="M25.292 29.242c.81 0 1.467-.62 1.467-1.384 0-.764-.657-1.384-1.467-1.384s-1.467.62-1.467 1.384c0 .765.657 1.384 1.467 1.384zm-6.52 5.073c.63 0 1.141-.482 1.141-1.077s-.51-1.077-1.14-1.077c-.631 0-1.142.482-1.142 1.077s.51 1.077 1.141 1.077z" fill="#fff"/></svg>