<svg width="90" height="90" xmlns="http://www.w3.org/2000/svg"><path fill="none" d="M-1-1h92v92H-1z"/><g fill="#FBE2B6"><path d="M82.649 47.244c-.027.436.023.823.15 1.162.126.341.318.615.576.82.261.204.576.318.943.34.349.022.639-.042.87-.192a1.31 1.31 0 00.518-.636c.115.214.286.393.513.536.226.142.49.223.793.241.37.023.682-.05.936-.217a1.66 1.66 0 00.588-.685 2.49 2.49 0 00.238-.933c.028-.455-.047-.858-.224-1.211a2.258 2.258 0 00-.7-.84l-.512.531c.237.151.426.349.566.593a1.5 1.5 0 01.18.864c-.02.351-.124.631-.31.838-.185.21-.43.306-.735.287-.297-.018-.523-.14-.679-.366-.153-.225-.226-.521-.22-.887l.005-.213.016-.25.01-.15-.695-.043-.005.077a49.841 49.841 0 01-.057.587 2.87 2.87 0 01-.14.672.982.982 0 01-.316.473c-.142.117-.336.168-.584.153a1.028 1.028 0 01-.783-.406c-.195-.25-.278-.607-.25-1.073.029-.458.148-.811.357-1.06.21-.25.447-.416.712-.498l-.36-.67a2.137 2.137 0 00-.649.402 2.265 2.265 0 00-.511.711c-.136.292-.216.64-.241 1.043zm-.023 2.473l-.142.743 1.269.713-.472 2.473-1.443.2-.142.744 6.16-.834.19-.998-5.42-3.041zm1.755 1.81l2.82 1.579-3.206.443.386-2.023zm-2.796 3.368l-.228.693 2.738.899-3.601 1.725-.294.895 3.784-1.795 1.881 3.437.287-.872-1.823-3.313 2.628.863.228-.692-5.6-1.84zm-1.413 4.282l-.328.683 1.042 1.015-1.092 2.268-1.445-.178-.33.683 6.17.777.44-.915-4.457-4.333zm1.231 2.2l2.319 2.252-3.212-.396.893-1.855zM76.66 65.49a2.79 2.79 0 00-.444 1.084c-.059.36-.026.692.097.998.127.306.344.56.652.761.293.191.577.278.851.262.276-.013.53-.112.766-.298a1.43 1.43 0 00.181.72c.127.234.317.435.57.6.312.203.619.294.922.273.304-.02.587-.122.85-.306.262-.181.484-.412.667-.694.25-.381.384-.77.403-1.164.02-.39-.044-.749-.194-1.074l-.707.208c.131.249.198.514.2.795.002.282-.088.562-.27.84-.192.296-.42.488-.683.576-.265.092-.525.054-.781-.113-.25-.162-.387-.38-.41-.653-.022-.271.06-.565.246-.88a11.3 11.3 0 01.11-.183l.136-.21c.042-.063.07-.105.082-.126l-.583-.38-.042.066-.095.138-.244.344a2.867 2.867 0 01-.454.516.982.982 0 01-.508.254c-.18.033-.375-.019-.583-.155a1.027 1.027 0 01-.481-.738c-.047-.314.057-.666.313-1.057.25-.384.528-.632.833-.746.306-.114.594-.141.865-.082l.017-.76a2.141 2.141 0 00-.763.03c-.267.06-.532.182-.795.366-.263.187-.504.45-.725.789zm-1.273 2.173l-.492.577.75 1.246-1.632 1.916-1.353-.539-.491.577 5.768 2.319.659-.773-3.21-5.323zm.63 2.44l1.672 2.767-3.007-1.2 1.336-1.567zm-5.241 2.58l-.536.494L73.77 77l-1.477 1.363.47.508 3.49-3.22-.47-.508-1.477 1.363-3.53-3.823zm-2.078 1.863l-1.888 1.363a3.041 3.041 0 00-.333.28c-.345.34-.518.717-.52 1.133-.004.42.132.82.407 1.2.275.38.611.634 1.009.76.4.13.813.086 1.241-.133.07-.033.138-.072.204-.116.068-.042.123-.08.168-.111l1.298-.936 1.275 1.765.59-.426-3.45-4.78zm-.186.987l1.367 1.892-1.278.922c-.043.03-.092.062-.148.096a1.376 1.376 0 01-.173.09c-.267.115-.517.119-.75.01a1.396 1.396 0 01-.821-1.138c-.028-.253.055-.487.248-.705a2.054 2.054 0 01.277-.245l1.278-.922zm-5.665 2.903l-.662.304 2.17 4.729-2.858 1.31-2.17-4.729-.662.303 2.458 5.358 4.183-1.917-2.459-5.358zm-4.973 2.194l-.697.211.633 2.084-1.531.465a3.067 3.067 0 00-.406.157c-.433.209-.719.51-.86.903-.138.396-.14.818-.003 1.267.136.45.372.799.707 1.048.334.252.74.344 1.218.276a2.961 2.961 0 00.425-.095l2.229-.677-1.715-5.64zm.138 2.956l.678 2.233-1.508.458a2.2 2.2 0 01-.171.044 1.33 1.33 0 01-.192.028c-.29.022-.527-.056-.713-.233a1.396 1.396 0 01-.408-1.343c.056-.248.21-.443.464-.586.053-.03.112-.058.175-.083a2.35 2.35 0 01.166-.06l1.509-.458zm-7.202-1.33c-.582.092-1.054.3-1.418.62-.363.32-.614.724-.752 1.213-.137.49-.158 1.033-.063 1.631.095.599.284 1.109.567 1.53.283.423.647.73 1.091.921.445.192.96.242 1.541.149.58-.092 1.053-.299 1.419-.62.363-.32.614-.724.751-1.213.138-.49.16-1.033.064-1.631-.095-.599-.284-1.109-.567-1.531a2.472 2.472 0 00-1.092-.92c-.447-.192-.96-.241-1.54-.15zm.11.687c.434-.066.813-.024 1.135.126.32.151.58.39.782.717.201.33.338.727.41 1.191.07.467.063.888-.023 1.264a1.82 1.82 0 01-.52.928c-.257.243-.603.397-1.037.463-.434.067-.812.025-1.131-.126a1.79 1.79 0 01-.782-.717 3.205 3.205 0 01-.413-1.19 3.27 3.27 0 01.022-1.264c.087-.376.26-.686.52-.928.257-.243.602-.398 1.037-.464zm-3.106-.187l-3.723.115.021.692 2.995-.093.061 1.972-2.504.077.022.692 2.504-.077.057 1.845-2.995.093.021.691 3.724-.115-.183-5.892zm-4.46.084l-.725-.068-.267 2.87-2.484-3.125-.938-.087 2.593 3.287-2.93 2.602.913.085 2.824-2.517-.256 2.755.725.067.545-5.87zm-6.341-.853l-.711-.156-1.112 5.083-1.964-.429-.147.676 4.639 1.014.147-.676-1.963-.43 1.111-5.082zm-7.376-.702a.958.958 0 00-.512-.072 1.016 1.016 0 00-.812.62.99.99 0 00-.078.536.971.971 0 00.192.478.952.952 0 00.406.32 1.046 1.046 0 001.028-.104.988.988 0 00.334-.427 1.003 1.003 0 00-.125-1.019 1.049 1.049 0 00-.433-.332zm-5.766-5.031a2.8 2.8 0 00-1.076-.462 1.832 1.832 0 00-1 .08c-.308.12-.566.332-.773.637-.196.289-.289.57-.277.845.007.276.102.533.283.771a1.436 1.436 0 00-.722.168 1.658 1.658 0 00-.612.56c-.209.307-.306.612-.29.915.014.304.111.589.29.855.177.265.404.492.682.68.377.256.763.397 1.157.423.39.028.75-.03 1.078-.174l-.195-.71a1.719 1.719 0 01-.8.185 1.504 1.504 0 01-.835-.285c-.291-.197-.48-.428-.563-.693-.087-.267-.044-.526.127-.78.167-.245.388-.378.661-.397.272-.017.564.07.876.262l.18.113.207.14.126.085.39-.576-.064-.044a37.28 37.28 0 01-.476-.348c-.201-.145-.37-.3-.508-.462a.982.982 0 01-.245-.512c-.03-.182.026-.375.166-.58a1.03 1.03 0 01.747-.468c.315-.04.665.07 1.051.332.38.257.624.54.732.847.108.307.13.596.065.865l.761.031c.04-.24.035-.493-.016-.762a2.263 2.263 0 00-.352-.803 2.892 2.892 0 00-.775-.738zm-2.139-1.304l-.568-.502-1.26.727-1.887-1.666.563-1.343-.567-.501-2.425 5.723.76.672 5.384-3.11zm-2.453.586l-2.798 1.62 1.255-2.983 1.543 1.363zm-1.458-4.114l-.48-.547-2.168 1.9.345-3.977-.621-.708-.378 4.169-3.917-.126.605.689 3.782.115-2.081 1.824.48.547 4.433-3.886zm-2.931-3.343l-.423-.628-1.403.386-1.406-2.088.884-1.158-.422-.628-3.79 4.926.567.843 5.993-1.653zm-2.52-.05l-3.117.861 1.966-2.57 1.15 1.708zm-1.139-6.151a2.8 2.8 0 00-.712-.93 1.831 1.831 0 00-.91-.42 1.655 1.655 0 00-.987.178c-.312.156-.531.356-.656.602a1.312 1.312 0 00-.13.81 1.432 1.432 0 00-.712-.207 1.654 1.654 0 00-.807.189c-.332.165-.566.385-.702.656-.135.273-.19.569-.165.888.025.317.112.626.262.927.204.407.471.72.802.935.327.215.669.34 1.025.376l.178-.716a1.708 1.708 0 01-.787-.229c-.244-.14-.44-.36-.59-.657-.157-.315-.208-.609-.152-.88.055-.275.22-.48.493-.618.266-.132.523-.14.77-.023.246.119.458.338.636.657l.103.187.111.224.068.135.623-.31-.035-.07a37.849 37.849 0 01-.245-.536 2.86 2.86 0 01-.217-.653.982.982 0 01.037-.567c.064-.172.207-.314.429-.424.293-.147.586-.16.88-.042.295.118.546.386.755.803.205.41.28.776.223 1.097-.056.32-.178.583-.366.787l.648.399c.152-.19.272-.413.359-.673a2.26 2.26 0 00.086-.871 2.89 2.89 0 00-.315-1.024zm-1.239-2.204l-.248-.715-1.455.013-.822-2.38 1.151-.891-.247-.716-4.927 3.789.331.96 6.217-.06zm-2.424-.696l-3.232.034 2.56-1.98.672 1.946zm.448-5.778l-.153-.712-5.087 1.09-.422-1.964-.677.145.997 4.642.676-.145-.422-1.965L8.016 53.2zm-.558-2.75l-.207-2.32a3.165 3.165 0 00-.071-.43c-.116-.468-.351-.81-.708-1.025-.359-.217-.772-.305-1.24-.264-.467.042-.857.201-1.17.478-.314.278-.488.656-.519 1.135a1.65 1.65 0 00-.004.235c.002.08.005.146.01.2l.142 1.595-2.17.193.065.726 5.872-.522zm-.754-.664l-2.324.207-.14-1.57a2.138 2.138 0 01-.007-.176c0-.068.003-.133.011-.194.038-.289.162-.505.374-.65a1.397 1.397 0 011.399-.124c.23.105.39.296.478.574.019.058.034.121.046.189.01.065.019.123.023.175l.14 1.569zm.379-6.406l.075-.725-5.175-.543.326-3.127 5.174.543.076-.724-5.863-.615-.476 4.576 5.863.615zm.641-5.457l.175-.707-2.115-.522.384-1.554a2.992 2.992 0 00.072-.429c.042-.478-.07-.878-.336-1.2-.27-.322-.632-.54-1.088-.652-.455-.112-.876-.088-1.261.073-.388.157-.674.46-.86.905a1.563 1.563 0 00-.08.22 2.861 2.861 0 00-.056.194L2 36.512l5.723 1.411zM5.112 36.53l-2.265-.559.378-1.53a1.975 1.975 0 01.124-.349c.129-.26.317-.425.564-.493a1.396 1.396 0 011.363.336c.185.175.274.408.267.698a1.359 1.359 0 01-.019.194c-.01.065-.021.122-.034.173l-.378 1.53zm4.787-5.458c.218-.548.281-1.06.191-1.536a2.472 2.472 0 00-.66-1.265c-.35-.368-.807-.664-1.37-.887-.563-.224-1.098-.321-1.606-.294a2.475 2.475 0 00-1.349.47c-.392.284-.696.7-.914 1.249-.216.545-.28 1.057-.191 1.536.09.476.31.898.66 1.266.35.367.807.663 1.37.886.563.224 1.099.321 1.606.294a2.475 2.475 0 001.349-.47c.393-.287.698-.703.914-1.249zm-.647-.256c-.165.407-.394.711-.688.912-.293.198-.631.3-1.015.306a3.187 3.187 0 01-1.233-.256 3.352 3.352 0 01-1.076-.664 1.82 1.82 0 01-.533-.92c-.077-.345-.034-.721.131-1.129.165-.407.393-.71.686-.908a1.79 1.79 0 011.016-.306c.384-.006.796.078 1.235.252.436.173.794.394 1.075.664.279.266.456.573.533.92.077.345.034.721-.13 1.129zm1.743-2.61l1.812-3.255-.604-.336-1.458 2.618-1.724-.96 1.218-2.188-.604-.337-1.219 2.19-1.613-.898 1.457-2.618-.604-.336-1.812 3.254 5.151 2.866zm2.105-3.734l.428-.589-2.33-1.694 3.956-.54.554-.761-4.151.55-.74-3.848-.539.742.72 3.712-2.237-1.627-.43.589 4.769 3.466zm3.926-4.995l.497-.534-3.812-3.542 1.37-1.471-.507-.471-3.235 3.476.507.471 1.37-1.471 3.81 3.542zm4.376-6.052a.953.953 0 00.322-.406 1.013 1.013 0 00-.123-1.013.99.99 0 00-.424-.339.973.973 0 00-.51-.076.952.952 0 00-.481.188 1.049 1.049 0 00-.431.939.99.99 0 00.199.504c.115.155.256.268.423.338a1.05 1.05 0 001.025-.136zm7.145-2.391a2.8 2.8 0 00.943-.695c.237-.276.382-.576.436-.901.053-.328 0-.657-.159-.99-.15-.315-.347-.538-.59-.667a1.312 1.312 0 00-.809-.145 1.43 1.43 0 00.22-.708 1.654 1.654 0 00-.173-.81c-.16-.335-.374-.573-.644-.714a1.659 1.659 0 00-.885-.181 2.48 2.48 0 00-.931.244c-.411.196-.728.457-.95.784a2.256 2.256 0 00-.395 1.017l.713.191a1.7 1.7 0 01.243-.782 1.51 1.51 0 01.668-.577c.318-.151.613-.196.884-.135.273.06.476.228.607.504.128.268.132.525.01.77-.123.244-.346.451-.67.623a10.05 10.05 0 01-.188.1 859.248 859.248 0 01-.362.172l.3.628.07-.034.153-.068.388-.167c.227-.1.446-.167.655-.203a.983.983 0 01.567.047c.171.067.31.212.417.436.141.296.15.59.026.881-.124.292-.397.539-.818.74-.414.196-.78.264-1.1.202-.32-.062-.58-.19-.781-.381l-.411.64c.186.156.408.28.667.372.26.088.55.122.87.102a2.894 2.894 0 001.029-.295zm2.313-1.25l.72-.234.013-1.455 2.395-.776.87 1.168.72-.234-3.697-4.998-.966.314-.056 6.215zm.74-2.41l.027-3.231 1.932 2.596-1.959.636zm4.266.824l.716-.134-.529-2.833 3.246 2.326.925-.173-3.394-2.452 2.106-3.304-.901.168-2.027 3.194-.508-2.72-.717.133 1.083 5.795z"/><path d="M40.128 7.374l.756-.044.382-1.404 2.513-.145.546 1.35.756-.044-2.31-5.77-1.014.058-1.629 6zm1.327-2.143l.845-3.12 1.21 3-2.055.12zm6.087 2.133c.435.032.823-.013 1.164-.136a1.84 1.84 0 00.826-.568c.207-.258.325-.571.352-.939.026-.348-.035-.638-.182-.87a1.31 1.31 0 00-.63-.527c.216-.113.397-.282.542-.506.145-.225.229-.489.251-.79.028-.37-.04-.684-.206-.94a1.657 1.657 0 00-.678-.595 2.483 2.483 0 00-.93-.248c-.454-.033-.86.037-1.214.21a2.26 2.26 0 00-.847.69l.524.518c.154-.235.354-.421.6-.56.245-.137.533-.194.866-.17.351.026.629.132.834.32.208.187.3.434.278.738-.022.297-.146.522-.374.675-.227.15-.524.22-.89.21a9.895 9.895 0 01-.213-.007l-.249-.019-.15-.01-.052.693.077.006.168.016.419.047c.247.027.47.076.67.148.2.07.357.176.47.321.114.143.163.338.145.586a1.03 1.03 0 01-.415.778c-.252.192-.61.271-1.076.237-.457-.033-.81-.156-1.057-.368a1.515 1.515 0 01-.489-.717l-.674.353c.084.228.216.445.395.652.182.205.417.378.705.52.29.139.637.223 1.04.252zm2.667.066l.741.153.733-1.257 2.465.509.178 1.445.742.153-.74-6.171-.994-.206L50.21 7.43zm1.837-1.727l1.623-2.796.393 3.212-2.016-.416zm4.712 3.319l.69.233 1.663-4.93 1.905.642.221-.656-4.5-1.516-.22.655 1.904.642-1.663 4.93zm2.717.944l2.1 1.01a3.198 3.198 0 00.405.159c.462.14.877.112 1.244-.084.37-.197.657-.507.861-.93.204-.423.267-.84.188-1.25-.076-.412-.313-.755-.709-1.027a1.636 1.636 0 00-.2-.123 2.974 2.974 0 00-.177-.095l-1.442-.694.945-1.962-.657-.316-2.558 5.312zm.957-.308l1.013-2.102 1.42.683a1.785 1.785 0 01.316.193c.229.18.35.397.367.653a1.398 1.398 0 01-.61 1.265c-.209.145-.454.184-.737.118a1.345 1.345 0 01-.186-.058 2.15 2.15 0 01-.163-.069l-1.42-.683zm5.163 3.502l.585.434 3.108-4.173 2.522 1.877-3.108 4.173.585.435 3.52-4.728-3.691-2.747-3.52 4.728zm4.318 3.28l.521.51 1.524-1.557 1.144 1.12a3.365 3.365 0 00.333.28c.391.279.793.385 1.205.319.414-.068.786-.27 1.114-.605.329-.336.521-.71.579-1.124.06-.413-.054-.813-.344-1.2a1.68 1.68 0 00-.15-.18 2.644 2.644 0 00-.137-.147l-1.665-1.628-4.124 4.212zm2.528-1.541l1.633-1.668 1.127 1.102c.036.037.077.08.12.13.044.05.084.103.117.154.159.244.205.49.138.737a1.392 1.392 0 01-.355.632c-.171.175-.38.299-.627.371-.244.07-.49.029-.736-.125a1.306 1.306 0 01-.158-.114 2.235 2.235 0 01-.132-.117l-1.127-1.102zm2.314 6.923c.362.465.772.779 1.228.942.456.164.931.188 1.426.073.495-.116.981-.36 1.46-.732.478-.372.833-.783 1.066-1.235a2.48 2.48 0 00.28-1.4c-.048-.482-.252-.955-.615-1.42-.36-.463-.77-.777-1.228-.943a2.476 2.476 0 00-1.426-.073c-.495.116-.981.36-1.46.732-.478.372-.833.784-1.066 1.235a2.471 2.471 0 00-.28 1.4c.05.484.254.958.615 1.42zm.549-.428c-.268-.348-.414-.7-.438-1.055a1.822 1.822 0 01.25-1.03 3.19 3.19 0 01.846-.933 3.353 3.353 0 011.118-.59 1.822 1.822 0 011.064.007c.337.108.64.336.907.684.268.348.413.699.435 1.052a1.79 1.79 0 01-.25 1.03c-.19.334-.47.646-.843.936a3.25 3.25 0 01-1.118.59 1.785 1.785 0 01-1.064-.007c-.337-.108-.64-.336-.907-.684zm1.356 2.793l1.895 3.207.596-.352-1.525-2.58 1.7-1.003 1.274 2.157.596-.352-1.275-2.156 1.59-.939 1.524 2.58.596-.352-1.896-3.207-5.075 2.997zm2.19 3.749l.291.668 2.642-1.152-1.537 3.684.377.863 1.626-3.857 3.694 1.31-.367-.84-3.568-1.258 2.536-1.106-.291-.668-5.403 2.356zm2.362 6.05l.207.699 4.99-1.474.57 1.927.663-.196-1.346-4.554-.664.196.57 1.928-4.99 1.474zm2.964 6.838a.95.95 0 00.184.484 1.013 1.013 0 00.934.412.99.99 0 00.508-.191.97.97 0 00.326-.399.95.95 0 00.084-.51 1.053 1.053 0 00-.587-.85.99.99 0 00-.535-.087 1.01 1.01 0 00-.508.191 1.05 1.05 0 00-.406.95z"/></g></svg>